<?xml version="1.0" standalone="no"?>
<!DOCTYPE svg PUBLIC "-//W3C//DTD SVG 20010904//EN"
 "http://www.w3.org/TR/2001/REC-SVG-20010904/DTD/svg10.dtd">
<svg version="1.0" xmlns="http://www.w3.org/2000/svg"
 width="420.000000pt" height="456.000000pt" viewBox="0 0 420.000000 456.000000"
 preserveAspectRatio="xMidYMid meet">

<rect width="100%" height="100%" fill="#FFFFFF"/>
<g transform="translate(0.000000,456.000000) scale(0.100000,-0.100000)"
fill="#2C2C54" stroke="none">
<path d="M0 2280 l0 -2280 2100 0 2100 0 0 2280 0 2280 -2100 0 -2100 0 0
-2280z m2847 2100 c149 -36 257 -95 371 -204 102 -97 166 -198 213 -333 41
-120 52 -288 28 -423 l-12 -69 40 -48 c126 -153 219 -362 254 -572 18 -109 14
-302 -10 -417 -86 -421 -385 -755 -799 -894 -180 -60 -173 -60 -1354 -60
l-1078 0 0 155 0 154 1103 3 c1093 3 1103 3 1178 25 338 96 581 359 645 698
19 105 14 273 -11 370 -18 69 -121 285 -135 285 -5 0 -14 -9 -20 -20 -21 -38
-165 -143 -255 -186 -181 -85 -76 -78 -1362 -82 l-1143 -2 0 490 0 490 1068 0
c687 0 1098 -4 1152 -11 157 -19 309 -67 403 -126 l40 -25 -7 62 c-19 163
-125 318 -270 392 -111 57 -25 53 -1251 58 l-1130 5 -3 153 -3 152 1133 0
c1093 0 1136 -1 1215 -20z m1047 -3635 c32 -9 71 -25 87 -36 65 -46 108 -175
95 -290 -17 -166 -114 -244 -301 -242 -170 3 -252 70 -274 228 -11 73 1 180
23 224 33 62 94 103 191 124 44 10 124 6 179 -8z m-3294 -10 c16 -9 37 -29 46
-46 20 -39 22 -111 4 -144 -12 -22 -11 -28 7 -48 29 -31 32 -39 43 -97 20
-107 -20 -185 -108 -210 -20 -5 -121 -10 -224 -10 l-188 0 0 285 0 285 195 0
c156 0 202 -3 225 -15z m490 -270 l0 -285 -70 0 -70 0 0 285 0 285 70 0 70 0
0 -285z m700 227 l0 -59 -149 -164 -148 -164 148 -3 149 -3 0 -59 0 -60 -230
0 -230 0 0 61 0 61 147 161 147 162 -147 3 -147 3 0 59 0 60 230 0 230 0 0
-58z m609 48 c45 -13 87 -54 103 -99 19 -57 15 -173 -8 -212 -34 -59 -89 -81
-215 -87 l-109 -5 0 -78 0 -79 -70 0 -70 0 0 285 0 285 168 0 c92 0 183 -4
201 -10z m732 0 c42 -12 82 -52 98 -99 15 -46 14 -135 -3 -175 -13 -30 -52
-70 -78 -78 -6 -2 14 -46 46 -102 31 -54 56 -99 56 -102 0 -2 -33 -4 -72 -4
l-73 0 -54 95 -53 95 -49 0 -49 0 0 -95 0 -95 -70 0 -70 0 0 285 0 285 168 0
c92 0 183 -5 203 -10z"/>
<path d="M820 3250 l0 -180 933 0 c1013 0 1007 0 1121 56 55 27 176 127 176
34 145 0 20 -183 99 -305 132 -79 21 -96 21 -1002 24 l-923 4 0 -181z"/>
<path d="M3710 627 c-76 -38 -102 -197 -46 -282 41 -62 170 -74 226 -20 51 49
65 190 25 252 -37 57 -141 82 -205 50z"/>
<path d="M320 585 l0 -45 95 0 c92 0 96 1 105 24 5 13 6 33 3 45 -5 20 -12 21
-104 21 l-99 0 0 -45z"/>
<path d="M320 360 l0 -61 117 3 117 3 8 32 c5 18 4 42 -2 57 -9 26 -10 26
-125 26 l-115 0 0 -60z"/>
<path d="M2170 545 l0 -85 83 0 c103 0 121 13 121 90 0 73 -11 80 -115 80
l-89 0 0 -85z"/>
<path d="M2900 555 l0 -75 80 0 c67 0 83 3 100 20 23 23 28 98 8 118 -8 8 -45
12 -100 12 l-88 0 0 -75z"/>
</g>
</svg>