<?xml version="1.0" standalone="no"?>
<!DOCTYPE svg PUBLIC "-//W3C//DTD SVG 20010904//EN"
 "http://www.w3.org/TR/2001/REC-SVG-20010904/DTD/svg10.dtd">
<svg version="1.0" xmlns="http://www.w3.org/2000/svg"
 width="352.000000pt" height="358.000000pt" viewBox="0 0 352.000000 358.000000"
 preserveAspectRatio="xMidYMid meet">

<g transform="translate(0.000000,358.000000) scale(0.100000,-0.100000)"
fill="#000000" stroke="none">
<path d="M0 1790 l0 -1790 1760 0 1760 0 0 1790 0 1790 -1760 0 -1760 0 0
-1790z m2507 1470 c149 -36 257 -95 371 -204 102 -97 166 -198 213 -333 41
-120 52 -288 28 -423 l-12 -69 40 -48 c126 -153 219 -362 254 -572 18 -109 14
-302 -10 -417 -86 -421 -385 -755 -799 -894 -180 -60 -173 -60 -1354 -60
l-1078 0 0 155 0 154 1103 3 c1093 3 1103 3 1178 25 338 96 581 359 645 698
19 105 14 273 -11 370 -18 69 -121 285 -135 285 -5 0 -14 -9 -20 -20 -21 -38
-165 -143 -255 -186 -181 -85 -76 -78 -1362 -82 l-1143 -2 0 490 0 490 1068 0
c687 0 1098 -4 1152 -11 157 -19 309 -67 403 -126 l40 -25 -7 62 c-19 163
-125 318 -270 392 -111 57 -25 53 -1251 58 l-1130 5 -3 153 -3 152 1133 0
c1093 0 1136 -1 1215 -20z"/>
<path d="M480 2130 l0 -180 933 0 c1013 0 1007 0 1121 56 55 27 176 127 176
145 0 20 -183 99 -305 132 -79 21 -96 21 -1002 24 l-923 4 0 -181z"/>
</g>
</svg>
