<?xml version="1.0" encoding="UTF-8" standalone="no" ?>
<!DOCTYPE svg PUBLIC "-//W3C//DTD SVG 1.1//EN" "http://www.w3.org/Graphics/SVG/1.1/DTD/svg11.dtd">
<svg xmlns="http://www.w3.org/2000/svg" xmlns:xlink="http://www.w3.org/1999/xlink" version="1.1" width="1280" height="1024" viewBox="0 0 1280 1024" xml:space="preserve">
<desc>Created with Fabric.js 5.3.0</desc>
<defs>
</defs>
<g transform="matrix(1 0 0 1 640 512)" id="background-logo"  >
<rect style="stroke: none; stroke-width: 0; stroke-dasharray: none; stroke-linecap: butt; stroke-dashoffset: 0; stroke-linejoin: miter; stroke-miterlimit: 4; fill: rgb(44,44,84); fill-rule: nonzero; opacity: 1;"  paint-order="stroke"  x="-640" y="-512" rx="0" ry="0" width="1280" height="1024" />
</g>
<g transform="matrix(1.9211538461538462 0 0 1.9211538461538462 640 410.851616868616)" id="logo-logo"  >
<g style=""  paint-order="stroke"   >
		<g transform="matrix(1.5243802660514352 0 0 1.5243802660514352 0 0)"  >
<path style="stroke: none; stroke-width: 1; stroke-dasharray: none; stroke-linecap: butt; stroke-dashoffset: 0; stroke-linejoin: miter; stroke-miterlimit: 4; fill: rgb(255,255,255); fill-rule: nonzero; opacity: 1;"  paint-order="stroke"  transform=" translate(-150.05, -150)" d="M 165.2 203 L 93.4 203 L 93.4 192.2 L 165.2 192.2 C 182.1 192.2 195.79999999999998 178.5 195.79999999999998 161.6 C 195.79999999999998 155 193.7 148.9 190.2 143.9 C 185 150.20000000000002 177.1 154.20000000000002 168.29999999999998 154.20000000000002 L 93.4 154.20000000000002 L 93.4 120.20000000000002 L 165.2 120.20000000000002 C 172.79999999999998 120.20000000000002 179.89999999999998 122.30000000000001 186 125.80000000000001 C 186 125.70000000000002 186 125.60000000000001 186 125.60000000000001 C 186 115.80000000000001 178 107.80000000000001 168.2 107.80000000000001 L 93.4 107.80000000000001 L 93.4 97 L 168.3 97 C 184.10000000000002 97 196.9 109.8 196.9 125.6 C 196.9 128.4 196.5 131.1 195.8 133.6 C 202.60000000000002 141 206.70000000000002 150.79999999999998 206.70000000000002 161.6 C 206.6 184.4 188 203 165.2 203 z M 104.2 143.4 L 168.2 143.4 C 174 143.4 179.1 140.6 182.39999999999998 136.3 C 177.49999999999997 132.9 171.59999999999997 131 165.2 131 L 104.19999999999999 131 L 104.19999999999999 143.4 z" stroke-linecap="round" />
</g>
		<g transform="matrix(1.5243802660514352 0 0 1.5243802660514352 40.16742001045526 -33.095961843407)"  >
<path style="stroke: none; stroke-width: 1; stroke-dasharray: none; stroke-linecap: butt; stroke-dashoffset: 0; stroke-linejoin: miter; stroke-miterlimit: 4; fill: rgb(255,255,255); fill-rule: nonzero; opacity: 1;"  paint-order="stroke"  transform=" translate(-176.4, -128.28890692141098)" d="M 186 125.8 C 186 125.8 185.8 131.2 182.4 136.3 C 182.4 136.3 174.9 131.60000000000002 167 131.10000000000002 L 166.8 120.30000000000003 C 166.8 120.2 177.9 120.2 186 125.8 z" stroke-linecap="round" />
</g>
		<g transform="matrix(1.5243802660514352 0 0 1.5243802660514352 72.48428165074563 -6.631054157323774)"  >
<path style="stroke: none; stroke-width: 1; stroke-dasharray: none; stroke-linecap: butt; stroke-dashoffset: 0; stroke-linejoin: miter; stroke-miterlimit: 4; fill: rgb(255,255,255); fill-rule: nonzero; opacity: 1;"  paint-order="stroke"  transform=" translate(-197.59999999999997, -145.64999999999998)" d="M 190.2 143.9 C 190.2 143.9 193.7 140.20000000000002 195.79999999999998 133.6 C 195.79999999999998 133.6 202.29999999999998 140 204.99999999999997 150 L 195.59999999999997 157.7 C 195.6 157.7 195 151.4 190.2 143.9 z" stroke-linecap="round" />
</g>
</g>
</g>
<g transform="matrix(1.9211538461538462 0 0 1.9211538461538462 639.9586951923076 657.2338001881494)" id="text-logo"  >
<g style=""  paint-order="stroke"   >
		<g transform="matrix(1 0 0 1 0 0)" id="text-logo-path-0"  >
<path style="stroke: none; stroke-width: 0; stroke-dasharray: none; stroke-linecap: butt; stroke-dashoffset: 0; stroke-linejoin: miter; stroke-miterlimit: 4; fill: rgb(255,255,255); fill-rule: nonzero; opacity: 1;"  paint-order="stroke"  transform=" translate(-105.65, 15.05)" d="M 2.15 0 L 20.51 0 C 26.88 0 29.97 -2.92 29.97 -9.46 C 29.97 -13.67 28.6 -16.47 25.89 -17.85 C 27.18 -19.14 27.82 -20.86 27.82 -23.01 C 27.82 -27.35 24.98 -30.1 20.73 -30.1 L 2.15 -30.1 L 2.15 0 Z M 9.46 -6.02 L 9.46 -12.9 L 20.51 -12.9 C 22.02 -12.9 22.66 -11.87 22.66 -9.46 C 22.66 -7.18 22.02 -6.02 20.51 -6.02 L 9.46 -6.02 Z M 9.46 -18.92 L 9.46 -24.08 L 19.09 -24.08 C 19.95 -24.08 20.51 -23.01 20.51 -21.5 C 20.51 -19.95 19.91 -18.92 19.09 -18.92 L 9.46 -18.92 Z M 42.87 0 L 50.18 0 L 50.18 -30.1 L 42.87 -30.1 L 42.87 0 Z M 63.08 -6.02 L 63.08 0 L 87.59 0 L 87.59 -6.02 L 71.25 -6.02 L 87.59 -24.08 L 87.59 -30.1 L 63.08 -30.1 L 63.08 -24.08 L 79.42 -24.08 L 63.08 -6.02 Z M 100.49 0 L 107.8 0 L 107.8 -8.6 L 115.54 -8.6 C 122.72 -8.6 126.16 -11.95 126.16 -19.39 C 126.16 -26.49 122.81 -30.1 115.54 -30.1 L 100.49 -30.1 L 100.49 0 Z M 107.8 -14.62 L 107.8 -24.08 L 115.41 -24.08 C 117.69 -24.08 118.85 -22.62 118.85 -19.35 C 118.85 -16.21 117.73 -14.62 115.54 -14.62 L 107.8 -14.62 Z M 139.06 0 L 146.37 0 L 146.37 -9.89 L 151.83 -9.89 L 157.55 0 L 165.29 0 L 159.19 -10.58 C 162.88 -11.87 164.73 -15.05 164.73 -20.08 C 164.73 -26.75 161.38 -30.1 154.67 -30.1 L 139.06 -30.1 L 139.06 0 Z M 146.37 -15.91 L 146.37 -24.08 L 154.63 -24.08 C 156.39 -24.08 157.42 -22.75 157.42 -20.04 C 157.42 -17.29 156.48 -15.91 154.63 -15.91 L 146.37 -15.91 Z M 193.72 0.43 C 203.99 0.43 209.15 -4.56 209.15 -15.09 C 209.15 -25.41 204.34 -30.53 193.72 -30.53 C 183.35 -30.53 178.19 -25.71 178.19 -15.09 C 178.19 -4.73 183.05 0.43 193.72 0.43 Z M 185.5 -15.09 C 185.5 -21.41 188.08 -24.51 193.72 -24.51 C 199.09 -24.51 201.84 -21.5 201.84 -15.09 C 201.84 -8.73 199.35 -5.59 193.72 -5.59 C 188.21 -5.59 185.5 -8.56 185.5 -15.09 Z" stroke-linecap="round" />
</g>
</g>
</g>
</svg>