<?xml version="1.0" standalone="no"?>
<!DOCTYPE svg PUBLIC "-//W3C//DTD SVG 20010904//EN"
 "http://www.w3.org/TR/2001/REC-SVG-20010904/DTD/svg10.dtd">
<svg version="1.0" xmlns="http://www.w3.org/2000/svg"
 width="442.000000pt" height="420.000000pt" viewBox="0 0 442.000000 420.000000"
 preserveAspectRatio="xMidYMid meet">

<g transform="translate(0.000000,420.000000) scale(0.100000,-0.100000)"
fill="#000000" stroke="none">
<path d="M710 3405 l0 -155 1113 0 c1217 0 1153 3 1272 -58 67 -34 174 -143
208 -214 43 -89 76 -248 50 -236 -5 2 -39 19 -78 39 -83 43 -177 75 -283 96
-66 14 -227 17 -1179 20 l-1103 4 0 -490 0 -491 1078 0 c677 0 1109 4 1162 10
186 23 354 105 480 234 24 25 47 46 51 46 23 0 121 -227 144 -334 27 -123 17
-311 -24 -436 -91 -280 -302 -485 -598 -577 l-88 -28 -1102 -3 -1103 -3 0
-154 0 -155 1048 0 c645 0 1082 4 1137 10 524 60 948 462 1040 984 8 49 15
139 15 201 0 266 -79 501 -242 715 l-66 88 15 68 c21 98 12 295 -17 389 -83
262 -276 458 -540 548 l-95 32 -1147 3 -1148 3 0 -156z m2181 -830 c140 -24
359 -112 359 -143 0 -25 -96 -107 -163 -141 -127 -63 -88 -61 -1127 -59 l-945
3 -3 178 -2 177 898 0 c745 0 914 -3 983 -15z"/>
</g>
</svg>
